<svg xmlns="http://www.w3.org/2000/svg" version="1.1" viewBox="-5.0 -10.0 110.0 135.0">
 <path d="m18.75 16.668c-5.7344 0-10.418 4.6797-10.418 10.414v45.832c0 5.7383 4.6836 10.418 10.418 10.418h62.5c5.7344 0 10.418-4.6797 10.418-10.414v-45.836c0-5.7344-4.6836-10.414-10.418-10.414zm2.082 8.332c2.2773 0 4.168 1.8906 4.168 4.168 0 2.2734-1.8906 4.1641-4.168 4.1641-2.2734 0-4.1641-1.8906-4.1641-4.1641 0-2.2773 1.8906-4.168 4.1641-4.168zm12.5 0c2.2773 0 4.168 1.8906 4.168 4.168 0 2.2734-1.8906 4.1641-4.168 4.1641-2.2734 0-4.1641-1.8906-4.1641-4.1641 0-2.2773 1.8906-4.168 4.1641-4.168zm12.5 0c2.2773 0 4.168 1.8906 4.168 4.168 0 2.2773-1.8906 4.168-4.168 4.168-2.2773 0-4.168-1.8906-4.168-4.168 0-2.2773 1.8906-4.168 4.168-4.168zm10.418 2.082h25c1.1523 0 2.082 0.93359 2.082 2.082 0 1.1523-0.93359 2.082-2.082 2.082h-25c-1.1523 0.003906-2.082-0.92969-2.082-2.0781 0-1.1523 0.92969-2.0859 2.082-2.0859zm-43.75 14.586h75v31.25c0 3.4961-2.75 6.25-6.25 6.25h-62.5c-3.5 0-6.25-2.7539-6.25-6.25z"/>
 <path d="m29.168 60.418c-4.5781 0-8.3359 3.7539-8.3359 8.332v2.082c0 2.2773 1.8906 4.168 4.168 4.168h12.5c2.2773 0 4.168-1.8906 4.168-4.168v-2.082c0-4.5781-3.7578-8.332-8.3359-8.332z"/>
 <path d="m31.25 45.832c-3.4258 0-6.25 2.8242-6.25 6.25 0 3.4297 2.8242 6.25 6.25 6.25s6.25-2.8203 6.25-6.25c0-3.4258-2.8242-6.25-6.25-6.25z"/>
 <path d="m52.082 66.668c-1.1484 0-2.082 0.92969-2.082 2.082 0 0.55078 0.21875 1.082 0.60938 1.4727s0.92188 0.60938 1.4727 0.60938h12.5c0.55469 0 1.082-0.21875 1.4727-0.60938 0.39062-0.39062 0.61328-0.92188 0.61328-1.4727s-0.22266-1.082-0.61328-1.4727c-0.39063-0.39062-0.91797-0.60938-1.4727-0.60938z"/>
 <path d="m52.082 58.332c-1.1484 0-2.082 0.93359-2.082 2.0859 0 0.55078 0.21875 1.082 0.60938 1.4727s0.92188 0.60938 1.4727 0.60938h25c0.55469 0 1.082-0.21875 1.4727-0.60938 0.39062-0.39062 0.61328-0.92188 0.61328-1.4727 0-0.55469-0.22266-1.082-0.61328-1.4727-0.39063-0.39062-0.91797-0.61328-1.4727-0.61328z"/>
 <path d="m52.082 50c-1.1484 0-2.082 0.93359-2.082 2.082 0 0.55469 0.21875 1.082 0.60938 1.4727 0.39062 0.39062 0.92188 0.61328 1.4727 0.61328h25c0.55469 0 1.082-0.22266 1.4727-0.61328 0.39062-0.39063 0.61328-0.91797 0.61328-1.4727 0-0.55078-0.22266-1.082-0.61328-1.4727-0.39063-0.39062-0.91797-0.60938-1.4727-0.60938z"/>
<text x="0.0" y="117.5" font-size="5.0" font-weight="bold" font-family="Arbeit Regular, Helvetica, Arial-Unicode, Arial, Sans-serif" fill="#000000">Created by Ian Banyuke</text><text x="0.0" y="122.5" font-size="5.0" font-weight="bold" font-family="Arbeit Regular, Helvetica, Arial-Unicode, Arial, Sans-serif" fill="#000000">from Noun Project</text></svg>