<svg xmlns="http://www.w3.org/2000/svg" version="1.1" viewBox="-5.0 -10.0 110.0 135.0">
 <path d="m76.562 6.25h-53.125c-5.1562 0-9.375 4.2188-9.375 9.375v68.75c0 5.1562 4.2188 9.375 9.375 9.375h53.125c5.1562 0 9.375-4.2188 9.375-9.375v-68.75c0-5.1562-4.2188-9.375-9.375-9.375zm-59.375 28.125h15.781c0.78125 8.75 8.125 15.625 17.031 15.625s16.25-6.875 17.031-15.625h15.781v43.75h-65.625zm32.812 0c-2.6562 0-4.6875-2.0312-4.6875-4.6875s2.0312-4.6875 4.6875-4.6875 4.6875 2.0312 4.6875 4.6875-2.0312 4.6875-4.6875 4.6875zm-3.125 3.125h6.25c3.2812 0 5.9375 2.5 6.25 5.7812-2.5 2.1875-5.7812 3.5938-9.375 3.5938s-6.875-1.4062-9.375-3.5938c0.3125-3.2812 2.9688-5.7812 6.25-5.7812zm15 2.8125c-1.0938-2.6562-3.2812-4.6875-5.9375-5.625 1.25-1.4062 1.875-3.125 1.875-5.1562 0-4.375-3.4375-7.8125-7.8125-7.8125s-7.8125 3.4375-7.8125 7.8125c0 2.0312 0.78125 3.75 1.875 5.1562-2.8125 0.78125-5 2.9688-5.9375 5.625-1.4062-2.1875-2.1875-4.6875-2.1875-7.5 0-7.8125 6.25-14.062 14.062-14.062s14.062 6.25 14.062 14.062c0 2.8125-0.78125 5.3125-2.1875 7.5zm-38.438-30.938h53.125c3.4375 0 6.25 2.8125 6.25 6.25v15.625h-15.781c-0.78125-8.75-8.125-15.625-17.031-15.625s-16.25 6.875-17.031 15.625h-15.781v-15.625c0-3.4375 2.8125-6.25 6.25-6.25zm53.125 81.25h-53.125c-3.4375 0-6.25-2.8125-6.25-6.25v-3.125h65.625v3.125c0 3.4375-2.8125 6.25-6.25 6.25z"/>
 <path d="m35.938 59.375h28.125c0.9375 0 1.5625-0.625 1.5625-1.5625s-0.625-1.5625-1.5625-1.5625h-28.125c-0.9375 0-1.5625 0.625-1.5625 1.5625s0.625 1.5625 1.5625 1.5625z"/>
 <path d="m73.438 62.5h-46.875c-0.9375 0-1.5625 0.625-1.5625 1.5625s0.625 1.5625 1.5625 1.5625h46.875c0.9375 0 1.5625-0.625 1.5625-1.5625s-0.625-1.5625-1.5625-1.5625z"/>
 <path d="m70.312 68.75h-40.625c-0.9375 0-1.5625 0.625-1.5625 1.5625s0.625 1.5625 1.5625 1.5625h40.625c0.9375 0 1.5625-0.625 1.5625-1.5625s-0.625-1.5625-1.5625-1.5625z"/>
<text x="0.0" y="117.5" font-size="5.0" font-weight="bold" font-family="Arbeit Regular, Helvetica, Arial-Unicode, Arial, Sans-serif" fill="#000000">Created by Cahya Kurniawan</text><text x="0.0" y="122.5" font-size="5.0" font-weight="bold" font-family="Arbeit Regular, Helvetica, Arial-Unicode, Arial, Sans-serif" fill="#000000">from Noun Project</text></svg>