<svg xmlns="http://www.w3.org/2000/svg" version="1.1" viewBox="-5.0 -10.0 110.0 135.0">
 <path d="m38.719 87.449c0 0.58984-0.47656 1.0625-1.0625 1.0625h-30.996c-3.6719 0-6.6602-2.9883-6.6602-6.6602v-68.188c0-3.6758 2.9883-6.6602 6.6602-6.6602h47.246c3.6719 0 6.6602 2.9883 6.6602 6.6602v27.973c0 0.58984-0.47656 1.0625-1.0625 1.0625-0.58984 0-1.0625-0.47656-1.0625-1.0625l-0.003906-27.973c0-2.5-2.0312-4.5312-4.5312-4.5312h-47.246c-2.5 0-4.5312 2.0312-4.5312 4.5312v68.191c0 2.5 2.0312 4.5312 4.5312 4.5312h30.992c0.58984 0 1.0625 0.47656 1.0625 1.0625zm-22.227-58.305c-3.7188 0-6.7461-3.0273-6.7461-6.7461s3.0273-6.7461 6.7461-6.7461 6.7461 3.0273 6.7461 6.7461-3.0273 6.7461-6.7461 6.7461zm0-2.1289c2.5469 0 4.6172-2.0703 4.6172-4.6172 0-2.5469-2.0703-4.6172-4.6172-4.6172-2.5469 0-4.6172 2.0703-4.6172 4.6172 0 2.5469 2.0703 4.6172 4.6172 4.6172zm-1.2461 3.9844h2.4883c5.3242 0 9.6562 4.332 9.6562 9.6562v3.4219c0 0.58984-0.47656 1.0625-1.0625 1.0625h-19.672c-0.58984 0-1.0625-0.47656-1.0625-1.0625v-3.4219c0-5.3242 4.332-9.6562 9.6562-9.6562zm-7.5273 9.6562v2.3594h17.543v-2.3594c0-4.1484-3.3789-7.5273-7.5273-7.5273h-2.4883c-4.1484 0-7.5273 3.375-7.5273 7.5273zm45.535-19.547h-21.465c-0.58984 0-1.0625 0.47656-1.0625 1.0625 0 0.58984 0.47656 1.0625 1.0625 1.0625h21.465c0.58984 0 1.0625-0.47656 1.0625-1.0625 0-0.58984-0.47656-1.0625-1.0625-1.0625zm1.0664 8.4609c0-0.58984-0.47656-1.0625-1.0625-1.0625h-21.465c-0.58984 0-1.0625 0.47656-1.0625 1.0625 0 0.58984 0.47656 1.0625 1.0625 1.0625h21.465c0.58984 0 1.0625-0.47656 1.0625-1.0625zm-19.062 20.746h-28.73c-0.58984 0-1.0625 0.47656-1.0625 1.0625 0 0.58984 0.47656 1.0625 1.0625 1.0625h28.73c0.58984 0 1.0625-0.47656 1.0625-1.0625 0-0.58984-0.47656-1.0625-1.0625-1.0625zm0 5.2305h-15.988c-0.58984 0-1.0625 0.47656-1.0625 1.0625 0 0.58984 0.47656 1.0625 1.0625 1.0625h15.988c0.58984 0 1.0625-0.47656 1.0625-1.0625 0-0.58984-0.47656-1.0625-1.0625-1.0625zm-18.613 2.1289c0.58984 0 1.0625-0.47656 1.0625-1.0625 0-0.58984-0.47656-1.0625-1.0625-1.0625h-2.5781c-0.58984 0-1.0625 0.47656-1.0625 1.0625 0 0.58984 0.47656 1.0625 1.0625 1.0625zm-10.117 0h4.6289c0.58984 0 1.0625-0.47656 1.0625-1.0625 0-0.58984-0.47656-1.0625-1.0625-1.0625h-4.6289c-0.58984 0-1.0625 0.47656-1.0625 1.0625 0 0.58984 0.47656 1.0625 1.0625 1.0625zm28.73 3.1016h-28.73c-0.58984 0-1.0625 0.47656-1.0625 1.0625 0 0.58984 0.47656 1.0625 1.0625 1.0625h28.73c0.58984 0 1.0625-0.47656 1.0625-1.0625 0-0.58984-0.47656-1.0625-1.0625-1.0625zm0 5.2344h-28.73c-0.58984 0-1.0625 0.47656-1.0625 1.0625 0 0.58984 0.47656 1.0625 1.0625 1.0625h28.73c0.58984 0 1.0625-0.47656 1.0625-1.0625 0-0.58984-0.47656-1.0625-1.0625-1.0625zm0 5.2305h-10.082c-0.58984 0-1.0625 0.47656-1.0625 1.0625 0 0.58984 0.47656 1.0625 1.0625 1.0625h10.082c0.58984 0 1.0625-0.47656 1.0625-1.0625 0-0.58984-0.47656-1.0625-1.0625-1.0625zm-12.766 2.1289c0.58984 0 1.0625-0.47656 1.0625-1.0625 0-0.58984-0.47656-1.0625-1.0625-1.0625h-1.0195c-0.58984 0-1.0625 0.47656-1.0625 1.0625 0 0.58984 0.47656 1.0625 1.0625 1.0625zm-15.965 0h11.887c0.58984 0 1.0625-0.47656 1.0625-1.0625 0-0.58984-0.47656-1.0625-1.0625-1.0625l-11.887-0.003906c-0.58984 0-1.0625 0.47656-1.0625 1.0625 0 0.58984 0.47656 1.0625 1.0625 1.0625zm0 5.2305h28.73c0.58984 0 1.0625-0.47656 1.0625-1.0625 0-0.58984-0.47656-1.0625-1.0625-1.0625l-28.73-0.003906c-0.58984 0-1.0625 0.47656-1.0625 1.0625 0 0.58984 0.47656 1.0625 1.0625 1.0625zm93.473-20.699v27.504c0 4.1836-3.4023 7.5859-7.5859 7.5859h-43.367c-4.1836 0-7.5859-3.4023-7.5859-7.5859v-22.617-0.007812-4.8828c0-4.1836 3.4023-7.5859 7.5859-7.5859h8.4922c0.42969-5.7773 5.2539-10.348 11.141-10.348h4.1055c5.8828 0 10.711 4.5703 11.141 10.348h8.4922c4.1836 0 7.5859 3.4023 7.5859 7.5859zm-40.336-7.5859h22.133c-0.42188-4.6016-4.3047-8.2188-9.0156-8.2188h-4.1055c-4.7109 0-8.5938 3.6172-9.0156 8.2188zm-16.078 7.5859v4.0508l23.617 8.0312c0.003906 0 0.003906 0 0.007813 0.003906l3.5117 1.1953 3.5156-1.1953c0.003907 0 0.003907 0 0.007813-0.003906l23.629-8.0352v-4.0469c0-3.0117-2.4492-5.457-5.457-5.457h-43.367c-3.0117 0-5.457 2.4492-5.457 5.457zm24.273 17.863c0 1.5781 1.2852 2.8672 2.8672 2.8672 1.5781 0 2.8672-1.2852 2.8672-2.8672v-3.3125l-2.5234 0.85938c-0.10937 0.039062-0.22656 0.058594-0.34375 0.058594-0.11719 0-0.23047-0.019532-0.34375-0.058594l-2.5234-0.85938zm30.012 9.6445v-21.211l-22.152 7.5312v4.0352c0 2.7539-2.2422 4.9961-4.9961 4.9961s-4.9961-2.2422-4.9961-4.9961v-4.0352l-22.145-7.5312v21.207c0 3.0117 2.4492 5.457 5.457 5.457h43.367c3.0117 0 5.457-2.4492 5.457-5.457z"/>
<text x="0.0" y="117.5" font-size="5.0" font-weight="bold" font-family="Arbeit Regular, Helvetica, Arial-Unicode, Arial, Sans-serif" fill="#000000">Created by Adoe Studio</text><text x="0.0" y="122.5" font-size="5.0" font-weight="bold" font-family="Arbeit Regular, Helvetica, Arial-Unicode, Arial, Sans-serif" fill="#000000">from Noun Project</text></svg>